<svg 
 xmlns="http://www.w3.org/2000/svg"
 xmlns:xlink="http://www.w3.org/1999/xlink"
 width="23px" height="23px" viewBox="0 0 23 23">
<path fill-rule="evenodd"  fill="rgb(221, 81, 17)"
 d="M11.500,23.000 C5.159,23.000 -0.000,17.841 -0.000,11.500 C-0.000,5.159 5.159,-0.000 11.500,-0.000 C17.841,-0.000 23.000,5.159 23.000,11.500 C23.000,17.841 17.841,23.000 11.500,23.000 ZM11.500,0.920 C5.666,0.920 0.920,5.666 0.920,11.500 C0.920,17.334 5.666,22.080 11.500,22.080 C17.334,22.080 22.080,17.334 22.080,11.500 C22.080,5.666 17.334,0.920 11.500,0.920 ZM4.275,8.600 L5.977,8.597 L11.500,13.429 L17.023,8.597 L18.725,8.600 L11.500,15.403 L4.275,8.600 Z"/>
</svg>